<mxfile host="app.diagrams.net" modified="2024-07-16T14:28:47.367Z" agent="Mozilla/5.0 (Windows NT 10.0; Win64; x64) AppleWebKit/537.36 (KHTML, like Gecko) Chrome/126.0.0.0 Safari/537.36" version="24.6.5" etag="rtBeymdQIUMD4nGu-WWq" type="github">
  <diagram name="Page-1" id="GLYcP9ky_P0HFxGsfWWs">
    <mxGraphModel>
      <root>
        <mxCell id="0" />
        <mxCell id="1" parent="0" />
      </root>
    </mxGraphModel>
  </diagram>
</mxfile>
